<svg xmlns="http://www.w3.org/2000/svg" viewBox="0 0 800 800" width="800" height="800"><rect width="800" height="800" fill="#E9E0CC"/><circle cx="640" cy="160" r="90" fill="#dbd3c0"/><circle cx="251.84674891072936" cy="323.46516975603464" r="62" fill="#2A1C16"/><circle cx="250.8860766500012" cy="283.7200164873951" r="62" fill="#2A1C16"/><circle cx="260.4004924821547" cy="245.11851404366817" r="62" fill="#2A1C16"/><circle cx="279.7216192244622" cy="210.37237525174092" r="62" fill="#2A1C16"/><circle cx="307.49216910571846" cy="181.92247790864252" r="62" fill="#2A1C16"/><circle cx="341.7612917300748" cy="161.76739581759105" r="62" fill="#2A1C16"/><circle cx="380.1216191583659" cy="151.32300119011364" r="62" fill="#2A1C16"/><circle cx="419.87838084163405" cy="151.32300119011362" r="62" fill="#2A1C16"/><circle cx="458.23870826992516" cy="161.76739581759102" r="62" fill="#2A1C16"/><circle cx="492.5078308942815" cy="181.92247790864252" r="62" fill="#2A1C16"/><circle cx="520.2783807755378" cy="210.37237525174095" r="62" fill="#2A1C16"/><circle cx="539.5995075178453" cy="245.11851404366817" r="62" fill="#2A1C16"/><circle cx="549.1139233499988" cy="283.720016487395" r="62" fill="#2A1C16"/><circle cx="548.1532510892707" cy="323.46516975603447" r="62" fill="#2A1C16"/><circle cx="400" cy="250" r="140" fill="#2A1C16"/>
<path d="M160 800c0-150 100-230 240-230s240 80 240 230z" fill="#3E6A6A"/><path d="M340 560h120v60c-20 30-100 30-120 0z" fill="#6b4530"/><path d="M350 600l50 70 50-70" fill="#6e8f8f"/>
<ellipse cx="400" cy="330" rx="125" ry="150" fill="#7A4E37"/><ellipse cx="276" cy="340" rx="20" ry="32" fill="#6b4530"/><ellipse cx="524" cy="340" rx="20" ry="32" fill="#6b4530"/>
<circle cx="352" cy="330" r="9" fill="#2A2420"/><circle cx="448" cy="330" r="9" fill="#2A2420"/><path d="M330 300q22-12 44 0M426 300q22-12 44 0" stroke="#3f332d" stroke-width="7" fill="none" stroke-linecap="round"/>
<path d="M398 340q-10 40 4 48" stroke="#6b4530" stroke-width="6" fill="none" stroke-linecap="round"/><path d="M360 410q40 30 80 0" stroke="#7A3B33" stroke-width="8" fill="none" stroke-linecap="round"/><ellipse cx="330" cy="390" rx="22" ry="12" fill="#E39A8A" opacity=".35"/><ellipse cx="470" cy="390" rx="22" ry="12" fill="#E39A8A" opacity=".35"/></svg>