<svg xmlns="http://www.w3.org/2000/svg" viewBox="0 0 1200 800" width="1200" height="800"><defs><linearGradient id="sk" x1="0" y1="0" x2="0" y2="1"><stop offset="0" stop-color="#9CC9E8"/><stop offset=".65" stop-color="#E4F1F8"/><stop offset="1" stop-color="#FFF6D8"/></linearGradient>
<linearGradient id="gr" x1="0" y1="0" x2="0" y2="1"><stop offset="0" stop-color="#7FA05A"/><stop offset="1" stop-color="#5E7F42"/></linearGradient></defs>
<rect width="1200" height="800" fill="url(#sk)"/><circle cx="916.4052345866362" cy="146.83330927828015" r="46" fill="#FFF8E6" opacity=".9"/><g opacity="0.7" fill="#fff" transform="translate(749 150) scale(1.26)"><ellipse cx="0" cy="0" rx="80" ry="22"/><ellipse cx="40" cy="-14" rx="50" ry="24"/><ellipse cx="-40" cy="-8" rx="40" ry="18"/></g><g opacity="0.7" fill="#fff" transform="translate(1136 80) scale(1.24)"><ellipse cx="0" cy="0" rx="80" ry="22"/><ellipse cx="40" cy="-14" rx="50" ry="24"/><ellipse cx="-40" cy="-8" rx="40" ry="18"/></g><g opacity="0.7" fill="#fff" transform="translate(276 93) scale(0.95)"><ellipse cx="0" cy="0" rx="80" ry="22"/><ellipse cx="40" cy="-14" rx="50" ry="24"/><ellipse cx="-40" cy="-8" rx="40" ry="18"/></g><g transform="translate(110.00720025971867 610) scale(0.9076107381878471)"><path d="M-6 0C-2-120 10-220 4-300" stroke="#7A6248" stroke-width="16" fill="none"/><path d="M4-300q40.00000000000001 -64.64101615137754 75.00000000000001 -57.94228634059948" stroke="#4c6838" stroke-width="14" fill="none" stroke-linecap="round"/><path d="M4-300q72.50462296293199 -46.90473046962798 135.94616805549748 -18.035643556662947" stroke="#4c6838" stroke-width="14" fill="none" stroke-linecap="round"/><path d="M4-300q77.27406610312546 -19.64723819589917 144.88887394336024 43.293714059226865" stroke="#4c6838" stroke-width="14" fill="none" stroke-linecap="round"/><path d="M4-300q51.42300877492315 0.6417777247591196 96.4181414529809 88.94399988070802" stroke="#4c6838" stroke-width="14" fill="none" stroke-linecap="round"/><path d="M4-300q6.972459419812651 9.84778792366982 13.07336141214872 109.6575228282571" stroke="#4c6838" stroke-width="14" fill="none" stroke-linecap="round"/><path d="M4-300q-61.28355544951823 -4.288495612538419 -114.90666646784669 77.85088487178855" stroke="#4c6838" stroke-width="14" fill="none" stroke-linecap="round"/><path d="M4-300q-79.69557584733964 -26.513770290093653 -149.42920471376183 27.84401684728928" stroke="#4c6838" stroke-width="14" fill="none" stroke-linecap="round"/></g><g transform="translate(1068.0418786304267 610) scale(0.8760939381439676)"><path d="M-6 0C-2-120 10-220 4-300" stroke="#7A6248" stroke-width="16" fill="none"/><path d="M4-300q40.00000000000001 -64.64101615137754 75.00000000000001 -57.94228634059948" stroke="#455f33" stroke-width="14" fill="none" stroke-linecap="round"/><path d="M4-300q72.50462296293199 -46.90473046962798 135.94616805549748 -18.035643556662947" stroke="#455f33" stroke-width="14" fill="none" stroke-linecap="round"/><path d="M4-300q77.27406610312546 -19.64723819589917 144.88887394336024 43.293714059226865" stroke="#455f33" stroke-width="14" fill="none" stroke-linecap="round"/><path d="M4-300q51.42300877492315 0.6417777247591196 96.4181414529809 88.94399988070802" stroke="#455f33" stroke-width="14" fill="none" stroke-linecap="round"/><path d="M4-300q6.972459419812651 9.84778792366982 13.07336141214872 109.6575228282571" stroke="#455f33" stroke-width="14" fill="none" stroke-linecap="round"/><path d="M4-300q-61.28355544951823 -4.288495612538419 -114.90666646784669 77.85088487178855" stroke="#455f33" stroke-width="14" fill="none" stroke-linecap="round"/><path d="M4-300q-79.69557584733964 -26.513770290093653 -149.42920471376183 27.84401684728928" stroke="#455f33" stroke-width="14" fill="none" stroke-linecap="round"/></g><rect y="610" width="1200" height="190" fill="url(#gr)"/><polygon points="560,610 640,610 690,800 510,800" fill="#D6CCBA"/><polygon points="300,410 900,410 600,260" fill="#5E5A55"/><polygon points="350,410 850,410 600,294" fill="#b1beb7"/><rect x="420" y="305" width="46" height="105" fill="#8E4B3A"/><rect x="330" y="410" width="540" height="200" fill="#C9D8D0"/><rect x="330" y="419" width="540" height="2" fill="#b1beb7" opacity=".35"/><rect x="330" y="437" width="540" height="2" fill="#b1beb7" opacity=".35"/><rect x="330" y="455" width="540" height="2" fill="#b1beb7" opacity=".35"/><rect x="330" y="473" width="540" height="2" fill="#b1beb7" opacity=".35"/><rect x="330" y="491" width="540" height="2" fill="#b1beb7" opacity=".35"/><rect x="330" y="509" width="540" height="2" fill="#b1beb7" opacity=".35"/><rect x="330" y="527" width="540" height="2" fill="#b1beb7" opacity=".35"/><rect x="330" y="545" width="540" height="2" fill="#b1beb7" opacity=".35"/><rect x="330" y="563" width="540" height="2" fill="#b1beb7" opacity=".35"/><rect x="330" y="581" width="540" height="2" fill="#b1beb7" opacity=".35"/><rect x="330" y="599" width="540" height="2" fill="#b1beb7" opacity=".35"/><polygon points="490,450 710,450 600,360" fill="#4d4a46"/><g><rect x="544" y="386" width="112" height="62" fill="#FFFDF6"/><rect x="550" y="392" width="100" height="50" fill="#33495C"/><path d="M600 392v50M550 417h100" stroke="#FFFDF6" stroke-width="5"/><rect x="540" y="446" width="120" height="8" fill="#FFFDF6"/></g><g><rect x="384" y="464" width="92" height="112" fill="#FFFDF6"/><rect x="390" y="470" width="80" height="100" fill="#33495C"/><path d="M430 470v100M390 520h80" stroke="#FFFDF6" stroke-width="5"/><rect x="380" y="574" width="100" height="8" fill="#FFFDF6"/></g><g><rect x="724" y="464" width="92" height="112" fill="#FFFDF6"/><rect x="730" y="470" width="80" height="100" fill="#33495C"/><path d="M770 470v100M730 520h80" stroke="#FFFDF6" stroke-width="5"/><rect x="720" y="574" width="100" height="8" fill="#FFFDF6"/></g><g><rect x="556" y="462" width="88" height="148" fill="#FFFDF6"/><rect x="564" y="470" width="72" height="140" fill="#B9502F"/><rect x="578.4" y="486.8" width="43.199999999999996" height="35" fill="#33495C" opacity=".8"/><circle cx="621.6" cy="551.2" r="5" fill="#E8C76A"/></g><rect x="310" y="420" width="580" height="22" fill="#4d4a46"/><rect x="340" y="440" width="16" height="170" fill="#FFFDF6"/><rect x="470" y="440" width="16" height="170" fill="#FFFDF6"/><rect x="710" y="440" width="16" height="170" fill="#FFFDF6"/><rect x="830" y="440" width="16" height="170" fill="#FFFDF6"/><rect x="320" y="556" width="220" height="6" fill="#FFFDF6"/><rect x="660" y="556" width="220" height="6" fill="#FFFDF6"/><rect x="326" y="560" width="4" height="50" fill="#FFFDF6"/><rect x="352.25" y="560" width="4" height="50" fill="#FFFDF6"/><rect x="378.5" y="560" width="4" height="50" fill="#FFFDF6"/><rect x="404.75" y="560" width="4" height="50" fill="#FFFDF6"/><rect x="431" y="560" width="4" height="50" fill="#FFFDF6"/><rect x="457.25" y="560" width="4" height="50" fill="#FFFDF6"/><rect x="483.5" y="560" width="4" height="50" fill="#FFFDF6"/><rect x="509.75" y="560" width="4" height="50" fill="#FFFDF6"/><rect x="664" y="560" width="4" height="50" fill="#FFFDF6"/><rect x="690.25" y="560" width="4" height="50" fill="#FFFDF6"/><rect x="716.5" y="560" width="4" height="50" fill="#FFFDF6"/><rect x="742.75" y="560" width="4" height="50" fill="#FFFDF6"/><rect x="769" y="560" width="4" height="50" fill="#FFFDF6"/><rect x="795.25" y="560" width="4" height="50" fill="#FFFDF6"/><rect x="821.5" y="560" width="4" height="50" fill="#FFFDF6"/><rect x="847.75" y="560" width="4" height="50" fill="#FFFDF6"/><rect x="556" y="582" width="88" height="14" fill="#b7afa3"/><rect x="548" y="596" width="104" height="14" fill="#b0a89c"/><g fill="#577A41"><ellipse cx="360" cy="592" rx="65" ry="34"/><ellipse cx="412" cy="598" rx="45.5" ry="26" fill="#688754"/><ellipse cx="308" cy="600" rx="39" ry="22" fill="#4e6e3b"/></g><g fill="#4F7039"><ellipse cx="840" cy="592" rx="70" ry="34"/><ellipse cx="896" cy="598" rx="49" ry="26" fill="#617e4d"/><ellipse cx="784" cy="600" rx="42" ry="22" fill="#476533"/></g><rect y="608" width="1200" height="4" fill="#4C6B36" opacity=".4"/></svg>