<svg xmlns="http://www.w3.org/2000/svg" viewBox="0 0 1200 800" width="1200" height="800"><defs><linearGradient id="sk" x1="0" y1="0" x2="0" y2="1"><stop offset="0" stop-color="#B9C3C9"/><stop offset=".65" stop-color="#DCE1E3"/><stop offset="1" stop-color="#EEF0EF"/></linearGradient>
<linearGradient id="gr" x1="0" y1="0" x2="0" y2="1"><stop offset="0" stop-color="#7FA05A"/><stop offset="1" stop-color="#5E7F42"/></linearGradient></defs>
<rect width="1200" height="800" fill="url(#sk)"/><g opacity="0.7" fill="#fff" transform="translate(408 96) scale(0.78)"><ellipse cx="0" cy="0" rx="80" ry="22"/><ellipse cx="40" cy="-14" rx="50" ry="24"/><ellipse cx="-40" cy="-8" rx="40" ry="18"/></g><g opacity="0.7" fill="#fff" transform="translate(436 101) scale(1.30)"><ellipse cx="0" cy="0" rx="80" ry="22"/><ellipse cx="40" cy="-14" rx="50" ry="24"/><ellipse cx="-40" cy="-8" rx="40" ry="18"/></g><g opacity="0.7" fill="#fff" transform="translate(1198 142) scale(1.24)"><ellipse cx="0" cy="0" rx="80" ry="22"/><ellipse cx="40" cy="-14" rx="50" ry="24"/><ellipse cx="-40" cy="-8" rx="40" ry="18"/></g><g transform="translate(110.02222688869676 610) scale(1.001754887449441)"><rect x="-9" y="-90" width="18" height="90" fill="#5B4632"/><circle cx="0" cy="-150" r="80" fill="#557041"/><circle cx="-50" cy="-110" r="50" fill="#4d653b"/><circle cx="50" cy="-115" r="55" fill="#637b50"/></g><g transform="translate(1067.433625337404 610) scale(1.0479421568792044)"><rect x="-9" y="-90" width="18" height="90" fill="#5B4632"/><circle cx="0" cy="-150" r="80" fill="#506d3c"/><circle cx="-50" cy="-110" r="50" fill="#486236"/><circle cx="50" cy="-115" r="55" fill="#5e794c"/></g><rect y="610" width="1200" height="190" fill="url(#gr)"/><polygon points="560,610 640,610 690,800 510,800" fill="#D6CCBA"/><polygon points="180,440 1020,440 910,330 290,330" fill="#5B5148"/><rect x="180" y="436" width="840" height="12" fill="#4b423b"/><rect x="230" y="440" width="740" height="170" fill="#E1D6C1"/><rect x="700" y="480" width="230" height="130" fill="#FFFFFF"/><rect x="708" y="490" width="214" height="24" fill="#f0f0f0"/><rect x="708" y="520" width="214" height="24" fill="#f0f0f0"/><rect x="708" y="550" width="214" height="24" fill="#f0f0f0"/><rect x="708" y="580" width="214" height="24" fill="#f0f0f0"/><g><rect x="254.8" y="490" width="28.6" height="70" fill="#737373"/><rect x="406.6" y="490" width="28.6" height="70" fill="#737373"/><rect x="284" y="484" width="122" height="82" fill="#FFFFFF"/><rect x="290" y="490" width="110" height="70" fill="#33495C"/><path d="M345 490v70M290 525h110" stroke="#FFFFFF" stroke-width="5"/><rect x="280" y="564" width="130" height="8" fill="#FFFFFF"/></g><g><rect x="427.6" y="490" width="18.2" height="70" fill="#737373"/><rect x="524.2" y="490" width="18.2" height="70" fill="#737373"/><rect x="444" y="484" width="82" height="82" fill="#FFFFFF"/><rect x="450" y="490" width="70" height="70" fill="#33495C"/><path d="M485 490v70M450 525h70" stroke="#FFFFFF" stroke-width="5"/><rect x="440" y="564" width="90" height="8" fill="#FFFFFF"/></g><g><rect x="572" y="472" width="86" height="138" fill="#FFFFFF"/><rect x="580" y="480" width="70" height="130" fill="#2E4A3B"/><rect x="594" y="495.6" width="42" height="32.5" fill="#33495C" opacity=".8"/><circle cx="636" cy="555.4" r="5" fill="#E8C76A"/></g><g fill="#577A41"><ellipse cx="350" cy="592" rx="80" ry="34"/><ellipse cx="414" cy="598" rx="56" ry="26" fill="#688754"/><ellipse cx="286" cy="600" rx="48" ry="22" fill="#4e6e3b"/></g><g fill="#4F7039"><ellipse cx="510" cy="592" rx="45" ry="34"/><ellipse cx="546" cy="598" rx="31.499999999999996" ry="26" fill="#617e4d"/><ellipse cx="474" cy="600" rx="27" ry="22" fill="#476533"/></g><rect y="608" width="1200" height="4" fill="#4C6B36" opacity=".4"/></svg>