<svg xmlns="http://www.w3.org/2000/svg" viewBox="0 0 800 800" width="800" height="800"><rect width="800" height="800" fill="#EFE2CB"/><circle cx="640" cy="160" r="90" fill="#e1d4bf"/><circle cx="400" cy="140" r="62" fill="#B9B4AE"/>
<path d="M160 800c0-150 100-230 240-230s240 80 240 230z" fill="#2F5D46"/><path d="M340 560h120v60c-20 30-100 30-120 0z" fill="#c7a184"/><path d="M350 600l50 70 50-70" fill="#638674"/>
<ellipse cx="400" cy="330" rx="125" ry="150" fill="#E2B796"/><ellipse cx="276" cy="340" rx="20" ry="32" fill="#c7a184"/><ellipse cx="524" cy="340" rx="20" ry="32" fill="#c7a184"/><path d="M272 300c0-100 58-150 128-150s128 50 128 150c-20-50-60-90-128-90s-108 40-128 90z" fill="#B9B4AE"/>
<circle cx="352" cy="330" r="9" fill="#2A2420"/><circle cx="448" cy="330" r="9" fill="#2A2420"/><path d="M330 300q22-12 44 0M426 300q22-12 44 0" stroke="#c0bcb6" stroke-width="7" fill="none" stroke-linecap="round"/>
<path d="M398 340q-10 40 4 48" stroke="#c7a184" stroke-width="6" fill="none" stroke-linecap="round"/><path d="M360 410q40 30 80 0" stroke="#7A3B33" stroke-width="8" fill="none" stroke-linecap="round"/><ellipse cx="330" cy="390" rx="22" ry="12" fill="#E39A8A" opacity=".35"/><ellipse cx="470" cy="390" rx="22" ry="12" fill="#E39A8A" opacity=".35"/><g fill="none" stroke="#2A2A2A" stroke-width="7"><circle cx="352" cy="330" r="34"/><circle cx="448" cy="330" r="34"/><path d="M386 330h28"/></g></svg>