<svg xmlns="http://www.w3.org/2000/svg" viewBox="0 0 800 800" width="800" height="800"><rect width="800" height="800" fill="#E3D6C0"/><circle cx="640" cy="160" r="90" fill="#d5c9b4"/>
<path d="M160 800c0-150 100-230 240-230s240 80 240 230z" fill="#4E6B8A"/><path d="M340 560h120v60c-20 30-100 30-120 0z" fill="#c29b7d"/><path d="M350 600l50 70 50-70" fill="#7a90a7"/>
<ellipse cx="400" cy="330" rx="125" ry="150" fill="#DDB08E"/><ellipse cx="276" cy="340" rx="20" ry="32" fill="#c29b7d"/><ellipse cx="524" cy="340" rx="20" ry="32" fill="#c29b7d"/><path d="M276 290c0-90 56-140 124-140s124 50 124 140c-16-40-60-60-124-60s-108 20-124 60z" fill="#5A3A22"/><path d="M290 340c10 110 60 160 110 160s100-50 110-160c-20 50-60 60-110 60s-90-10-110-60z" fill="#5A3A22"/>
<circle cx="352" cy="330" r="9" fill="#2A2420"/><circle cx="448" cy="330" r="9" fill="#2A2420"/><path d="M330 300q22-12 44 0M426 300q22-12 44 0" stroke="#6b4e38" stroke-width="7" fill="none" stroke-linecap="round"/>
<path d="M398 340q-10 40 4 48" stroke="#c29b7d" stroke-width="6" fill="none" stroke-linecap="round"/><path d="M360 410q40 30 80 0" stroke="#7A3B33" stroke-width="8" fill="none" stroke-linecap="round"/><ellipse cx="330" cy="390" rx="22" ry="12" fill="#E39A8A" opacity=".35"/><ellipse cx="470" cy="390" rx="22" ry="12" fill="#E39A8A" opacity=".35"/></svg>